<!-- icon666.com - MILLIONS vector ICONS FREE --><svg id="Capa_1" enable-background="new 0 0 512 512" viewBox="0 0 512 512" xmlns="http://www.w3.org/2000/svg"><g><g><circle cx="408.306" cy="103.694" fill="#ffe07d" r="32.065"></circle><circle cx="256" cy="256" fill="#a4ccff" r="72.145"></circle><path d="m276.04 308.105c-39.845 0-72.145-32.301-72.145-72.145 0-14.798 4.47-28.544 12.112-39.993-19.378 12.935-32.153 34.986-32.153 60.033 0 39.844 32.3 72.145 72.145 72.145 25.047 0 47.098-12.774 60.033-32.153-11.447 7.642-25.194 12.113-39.992 12.113z" fill="#8bb3ea"></path><circle cx="63.613" cy="63.613" fill="#ead1ff" r="56.113"></circle><path d="m79.2 104.139c-30.99 0-56.113-25.123-56.113-56.113 0-11.509 3.477-22.201 9.421-31.105-15.072 10.06-25.008 27.211-25.008 46.692 0 30.99 25.122 56.113 56.113 56.113 19.481 0 36.632-9.936 46.692-25.008-8.904 5.944-19.596 9.421-31.105 9.421z" fill="#d6bdef"></path><circle cx="456.403" cy="352.194" fill="#ccf49f" r="48.097"></circle><path d="m469.763 386.93c-26.563 0-48.097-21.534-48.097-48.097 0-9.865 2.98-19.03 8.075-26.662-12.919 8.623-21.435 23.324-21.435 40.022 0 26.563 21.534 48.097 48.097 48.097 16.698 0 31.398-8.516 40.022-21.435-7.632 5.095-16.796 8.075-26.662 8.075z" fill="#b3e59f"></path><path d="m420.331 123.734c-17.709 0-32.065-14.356-32.065-32.065 0-5.755 1.639-11.078 4.293-15.748-9.698 5.514-16.317 15.817-16.317 27.772 0 17.708 14.356 32.065 32.065 32.065 11.954 0 22.259-6.618 27.772-16.317-4.669 2.654-9.994 4.293-15.748 4.293z" fill="#ffd064"></path><circle cx="31.548" cy="480.452" fill="#ffe07d" r="24.048"></circle><circle cx="256" cy="440.371" fill="#eceaec" r="32.065"></circle><path d="m268.024 460.411c-17.709 0-32.065-14.356-32.065-32.065 0-5.755 1.639-11.078 4.293-15.747-9.698 5.514-16.317 15.817-16.317 27.772 0 17.708 14.356 32.065 32.065 32.065 11.954 0 22.259-6.618 27.772-16.317-4.669 2.654-9.993 4.292-15.748 4.292z" fill="#dad8db"></path></g><g><path d="m509.644 336.136c-1.195-3.966-5.38-6.214-9.345-5.018-3.966 1.195-6.212 5.378-5.018 9.345 1.14 3.785 1.718 7.731 1.718 11.73 0 22.385-18.211 40.597-40.597 40.597s-40.597-18.212-40.597-40.597 18.211-40.597 40.597-40.597c7.617 0 15.039 2.12 21.462 6.129 3.514 2.194 8.141 1.124 10.333-2.39 2.194-3.514 1.124-8.14-2.39-10.333-8.808-5.499-18.977-8.406-29.405-8.406-19.362 0-36.435 9.955-46.394 25.009l-79.282-38.055c3.177-8.59 4.917-17.87 4.917-27.55 0-19.263-6.877-36.949-18.301-50.738l17.798-17.798c2.538 2.938 4.938 6.026 7.133 9.224 1.337 1.947 3.43 3.066 5.616 3.233 1.646.126 3.345-.289 4.813-1.296 3.414-2.344 4.282-7.014 1.938-10.428-2.715-3.953-5.701-7.763-8.869-11.363l40.378-40.378c6.326 4.292 13.953 6.802 22.156 6.802 21.816 0 39.564-17.749 39.564-39.565s-17.749-39.564-39.564-39.564c-21.816 0-39.565 17.749-39.565 39.564 0 8.203 2.511 15.831 6.802 22.156l-68.806 68.806c-13.788-11.424-31.474-18.301-50.738-18.301s-36.949 6.877-50.738 18.301l-17.837-17.836c.387-.334.768-.677 1.159-1.006 3.173-2.662 3.588-7.393.925-10.566-2.662-3.173-7.393-3.587-10.566-.925-.726.609-1.437 1.238-2.15 1.865l-63.242-63.242c8.551-10.833 13.674-24.492 13.674-39.333 0-4.678-.511-9.347-1.52-13.877-.9-4.043-4.904-6.59-8.95-5.691-4.043.9-6.591 4.907-5.691 8.95.771 3.462 1.161 7.035 1.161 10.618 0 26.805-21.808 48.613-48.613 48.613s-48.61-21.807-48.61-48.612 21.808-48.613 48.613-48.613c11.797 0 23.173 4.277 32.031 12.044 3.114 2.73 7.853 2.419 10.584-.695 2.73-3.115 2.419-7.853-.695-10.584-11.596-10.166-26.483-15.765-41.92-15.765-35.076 0-63.613 28.537-63.613 63.613s28.537 63.613 63.613 63.613c14.841 0 28.5-5.123 39.333-13.674l63.422 63.422c-1.441 2.916-.861 6.544 1.658 8.851 1.286 1.177 2.873 1.822 4.487 1.946 1.33.102 2.677-.158 3.893-.758l18.25 18.25c-11.424 13.789-18.301 31.474-18.301 50.738s6.877 36.949 18.301 50.738l-146.748 146.746c-4.773-2.906-10.374-4.582-16.36-4.582-17.396 0-31.548 14.153-31.548 31.549s14.152 31.548 31.548 31.548 31.548-14.152 31.548-31.548c0-5.985-1.676-11.587-4.582-16.36l118.276-118.276c2.367 2.09 4.807 4.099 7.318 5.983 1.185.89 2.548 1.376 3.924 1.481 2.469.189 4.98-.848 6.577-2.976 2.487-3.313 1.818-8.014-1.495-10.501-1.947-1.462-3.849-3.006-5.7-4.611l17.849-17.849c11.977 9.924 26.898 16.403 43.237 17.937v66.248c-18.24 3.516-32.064 19.591-32.064 38.842 0 21.816 17.749 39.564 39.564 39.564s39.564-17.749 39.564-39.564c0-19.251-13.824-35.327-32.065-38.842v-26.021c5.059-.318 10.142-.958 15.121-1.92 4.067-.786 6.727-4.72 5.941-8.787-.786-4.066-4.72-6.726-8.787-5.941-4.043.781-8.165 1.312-12.275 1.607v-25.186c25.753-2.417 47.98-17.138 60.717-38.218l22.653 10.873c-2.267 4.517-6.599 10.392-9.355 13.805-2.602 3.222-2.099 7.945 1.124 10.547 1.227.991 2.671 1.531 4.133 1.643 2.378.182 4.803-.771 6.414-2.766 3.02-3.74 8.321-11.255 11.111-16.784l43.205 20.738c-1.742 5.383-2.693 11.119-2.693 17.074 0 30.656 24.94 55.597 55.597 55.597s55.595-24.939 55.595-55.596c0-5.465-.792-10.867-2.356-16.057zm-101.337-257.007c13.545 0 24.564 11.02 24.564 24.564s-11.02 24.565-24.564 24.565-24.565-11.02-24.565-24.565 11.02-24.564 24.565-24.564zm-376.759 417.871c-9.125 0-16.548-7.423-16.548-16.548s7.423-16.548 16.548-16.548 16.548 7.423 16.548 16.548-7.423 16.548-16.548 16.548zm249.016-56.629c0 13.545-11.02 24.564-24.564 24.564s-24.564-11.02-24.564-24.564 11.02-24.564 24.564-24.564 24.564 11.019 24.564 24.564zm-24.564-119.726c-35.646 0-64.645-29-64.645-64.645s29-64.645 64.645-64.645 64.645 29 64.645 64.645-28.999 64.645-64.645 64.645z"></path><path d="m315.721 342.001c-3.769 2.617-7.748 5.01-11.829 7.113-3.682 1.898-5.129 6.421-3.231 10.102 1.237 2.402 3.592 3.852 6.102 4.044 1.338.103 2.72-.153 4-.813 4.662-2.402 9.208-5.136 13.514-8.126 3.402-2.362 4.245-7.036 1.882-10.438-2.362-3.402-7.035-4.245-10.438-1.882z"></path><path d="m298.691 160.362c4.193 1.868 8.298 4.033 12.198 6.433 1.052.647 2.201 1.004 3.353 1.092 2.712.208 5.442-1.072 6.966-3.547 2.171-3.528 1.072-8.147-2.456-10.318-4.464-2.748-9.16-5.225-13.958-7.362-3.784-1.683-8.217.015-9.903 3.799-1.685 3.783.016 8.218 3.8 9.903z"></path><path d="m255.743 151.224c.181.014.364.021.548.022 4.578.019 9.204.345 13.764.969 4.114.554 7.886-2.309 8.449-6.413.562-4.104-2.309-7.886-6.413-8.449-5.211-.713-10.502-1.085-15.737-1.108-4.142-.018-7.514 3.326-7.531 7.468-.017 3.96 3.035 7.214 6.92 7.511z"></path><path d="m229.056 372.661c.376.087.752.144 1.126.172 3.634.278 7.025-2.132 7.87-5.791.933-4.036-1.583-8.064-5.619-8.996l-.535-.125c-4.306-1.016-8.576-2.311-12.693-3.847-3.882-1.448-8.201.524-9.649 4.405-1.448 3.88.524 8.2 4.405 9.649 4.702 1.755 9.577 3.232 14.489 4.392z"></path><path d="m210.278 160.713c1.189.091 2.418-.101 3.586-.615 4.207-1.851 8.571-3.437 12.973-4.716 3.978-1.155 6.266-5.316 5.11-9.294-1.155-3.979-5.318-6.266-9.294-5.11-5.032 1.462-10.021 3.275-14.828 5.39-3.792 1.668-5.513 6.094-3.845 9.885 1.153 2.623 3.627 4.256 6.298 4.46z"></path><path d="m158.434 199.906c-3.722-1.817-8.213-.274-10.031 3.448-2.298 4.705-4.307 9.617-5.97 14.602-1.312 3.929.81 8.177 4.739 9.489.599.2 1.206.321 1.808.367 3.348.256 6.569-1.776 7.681-5.106 1.455-4.36 3.212-8.656 5.221-12.768 1.817-3.723.274-8.214-3.448-10.032z"></path><path d="m148.898 290.521c-3.848 1.534-5.722 5.897-4.188 9.745 1.942 4.87 4.228 9.66 6.792 14.235 1.275 2.275 3.558 3.628 5.977 3.813 1.424.109 2.894-.187 4.232-.937 3.613-2.025 4.901-6.596 2.875-10.209-2.245-4.005-4.245-8.196-5.945-12.458-1.533-3.849-5.895-5.725-9.743-4.189z"></path><path d="m365.722 242.821c.641.049 1.3.016 1.961-.108 4.071-.765 6.751-4.684 5.987-8.755-.968-5.153-2.291-10.296-3.932-15.285-1.294-3.935-5.535-6.075-9.468-4.781-3.935 1.294-6.075 5.534-4.78 9.468 1.436 4.363 2.592 8.86 3.438 13.365.641 3.41 3.493 5.844 6.794 6.096z"></path><path d="m362.424 292.295c.459.123.918.2 1.375.235 3.529.27 6.861-1.999 7.809-5.541.308-1.153.601-2.314.877-3.482 1.208-5.118 2.089-10.349 2.617-15.549.419-4.121-2.582-7.801-6.703-8.22-4.13-.443-7.801 2.582-8.22 6.703-.463 4.553-1.234 9.135-2.293 13.621-.241 1.024-.498 2.04-.768 3.05-1.071 4.001 1.304 8.113 5.306 9.183z"></path><path d="m136.303 251.402c-.207 5.248-.063 10.559.427 15.786.345 3.691 3.31 6.505 6.886 6.779.419.032.847.03 1.281-.011 4.124-.386 7.154-4.043 6.768-8.167-.428-4.568-.553-9.21-.372-13.797.162-4.139-3.058-7.652-7.199-7.789-4.141-.164-7.628 3.059-7.791 7.199z"></path></g></g></svg>