<!-- icon666.com - MILLIONS vector ICONS FREE --><svg viewBox="0 0 492 492.00012" xmlns="http://www.w3.org/2000/svg"><path d="m484 443.988281v10.261719h-120.179688v-10.261719c0-31.816406 27.039063-57.859375 60.089844-57.859375 15.8125-.042968 31.027344 6.050782 42.441406 17 11.210938 10.640625 17.585938 25.402344 17.648438 40.859375zm0 0" fill="#00acea"></path><path d="m458.730469 334.539062c0-18.515624-15.589844-33.527343-34.820313-33.527343-19.230468 0-34.820312 15.011719-34.820312 33.527343 0 18.519532 15.589844 33.53125 34.820312 33.53125 19.230469 0 34.820313-15.011718 34.820313-33.53125zm0 0" fill="#00acea"></path><path d="m245.179688 157.339844h-51c-14.539063 0-26.320313-12.359375-26.320313-27.589844v-94.160156c0-15.238282 11.78125-27.589844 26.320313-27.589844h172.011718c14.539063 0 26.320313 12.351562 26.320313 27.589844v94.160156c0 15.230469-11.78125 27.589844-26.320313 27.589844h-26.980468l-1.839844 54.140625-57.050782-54.140625zm0 0" fill="#00efd1"></path><path d="m277.121094 409.011719h28.730468c21.980469 0 39.804688 17.816406 39.808594 39.796875v35.191406h-100.488281v-55.101562zm0 0" fill="#00efd1"></path><path d="m317.351562 280.191406h-80.800781c-.390625 0-.789062-.011718-1.171875-.042968-7.824218-.457032-14.648437-5.46875-17.433594-12.792969-2.78125-7.328125-1.007812-15.605469 4.535157-21.144531.582031-.585938 1.203125-1.132813 1.859375-1.640626 3.488281-2.722656 7.785156-4.199218 12.210937-4.191406h40.988281c21.988282 0 39.8125 17.824219 39.8125 39.8125zm0 0" fill="#4b5d63" style="fill: rgb(71, 91, 98);"></path><path d="m277.121094 388.128906c-18.613282 12.972656-43.175782 13.570313-62.402344 1.519532-17.515625-10.945313-28.179688-30.121094-28.238281-50.777344v-35.050782c2.980469.378907 29.058593 2.828126 48.898437-23.628906v-.042968c.382813.03125.78125.042968 1.171875.042968h66.480469v58.679688c-.070312 19.664062-9.746094 38.058594-25.910156 49.257812zm0 0" fill="#f7caa5"></path><path d="m277.121094 408.488281v.523438l-31.949219 19.886719-30.453125-19.886719v-19.363281c19.226562 12.050781 43.789062 11.453124 62.402344-1.519532zm0 0" fill="#edb288"></path><path d="m245.179688 157.339844v41.730468c0 7.621094-5.890626 13.789063-13.160157 13.789063h-43.441406l-43.949219 33.121094-2.238281-33.121094h-19.742187c-7.269532 0-13.160157-6.167969-13.160157-13.789063v-64.148437c0-7.621094 5.890625-13.800781 13.160157-13.800781h45.210937v8.628906c0 15.230469 11.78125 27.589844 26.320313 27.589844zm0 0" fill="#00acea"></path><path d="m214.71875 409.011719 30.453125 19.886719v55.101562h-98.832031v-35.191406c.003906-21.980469 17.828125-39.796875 39.808594-39.796875zm0 0" fill="#00efd1"></path><path d="m235.378906 280.148438v.042968c-19.839844 26.457032-45.917968 24.007813-48.898437 23.628906v-4.730468c.019531-24.289063 15.082031-46.023438 37.820312-54.570313l.039063.050781c-.65625.507813-1.277344 1.054688-1.859375 1.640626-5.542969 5.539062-7.316407 13.816406-4.535157 21.144531 2.785157 7.324219 9.609376 12.335937 17.433594 12.792969zm0 0" fill="#4b5d63" style="fill: rgb(71, 91, 98);"></path><path d="m128.179688 443.988281v10.261719h-120.179688v-10.261719c0-31.816406 27.039062-57.859375 60.089844-57.859375 15.816406-.042968 31.027344 6.050782 42.441406 17 11.210938 10.640625 17.589844 25.402344 17.648438 40.859375zm0 0" fill="#00acea"></path><path d="m102.910156 334.539062c0-18.515624-15.589844-33.527343-34.820312-33.527343-19.230469 0-34.820313 15.011719-34.820313 33.527343 0 18.519532 15.589844 33.53125 34.820313 33.53125 19.230468 0 34.820312-15.011718 34.820312-33.53125zm0 0" fill="#00acea"></path><g fill="#083863"><path d="m141.300781 253.257812c2.664063 1.199219 5.765625.890626 8.140625-.820312l41.816406-31.4375h40.761719c11.667969 0 20.980469-9.914062 20.980469-21.929688v-34.070312h24.128906l54.734375 52.113281c1.476563 1.433594 3.449219 2.25 5.507813 2.28125 1.039062.015625 2.066406-.171875 3.03125-.554687 2.925781-1.257813 4.863281-4.09375 4.960937-7.28125l1.578125-46.558594h19.25c19.324219-.171875 34.878906-15.925781 34.808594-35.25v-94.160156c0-19.625-15.886719-35.589844-34.808594-35.589844h-172.011718c-18.921876 0-34.179688 15.964844-34.179688 35.589844v77.410156h-37.351562c-11.972657.207031-21.589844 9.941406-21.648438 21.921875v64.148437c.058594 11.976563 9.671875 21.714844 21.648438 21.929688h12.261718l1.738282 25.589844c.199218 2.910156 1.988281 5.472656 4.652343 6.667968zm34.699219-217.667968c0-10.800782 8.078125-19.589844 18.179688-19.589844h172.011718c10.097656 0 18.808594 8.789062 18.808594 19.589844v94.160156c.078125 10.492188-8.316406 19.085938-18.808594 19.25h-26.980468c-4.347657.078125-7.871094 3.554688-8 7.898438l-1.238282 36.457031-44.152344-42.027344c-1.46875-1.445313-3.4375-2.277344-5.5-2.328125h-86.140624c-10.101563 0-18.179688-8.449219-18.179688-19.25zm-53.351562 169.410156c-3.136719-.203125-5.597657-2.785156-5.648438-5.929688v-64.148437c.050781-3.148437 2.511719-5.722656 5.648438-5.921875h37.351562v.75c0 19.625 15.257812 35.25 34.179688 35.25h42.820312v34.070312c0 3.191407-2.136719 5.929688-4.980469 5.929688h-43.441406c-1.726563-.023438-3.417969.515625-4.8125 1.539062l-32.152344 24.195313-1.242187-18.328125c-.289063-4.1875-3.78125-7.429688-7.980469-7.40625zm0 0" fill="#083863" style="fill: rgb(0, 0, 0);"></path><path d="m202.730469 69h78.96875c4.417969 0 8-3.582031 8-8s-3.582031-8-8-8h-78.96875c-4.417969 0-8 3.582031-8 8s3.582031 8 8 8zm0 0" fill="#083863" style="fill: rgb(0, 0, 0);"></path><path d="m202.730469 111h151.609375c4.417968 0 8-3.582031 8-8s-3.582032-8-8-8h-151.609375c-4.417969 0-8 3.582031-8 8s3.582031 8 8 8zm0 0" fill="#083863" style="fill: rgb(0, 0, 0);"></path><path d="m381.089844 334.539062c0 22.902344 19.210937 41.53125 42.820312 41.53125s42.820313-18.632812 42.820313-41.53125c0-22.898437-19.210938-41.527343-42.820313-41.527343s-42.820312 18.628906-42.820312 41.527343zm69.640625 0c0 14.078126-12.03125 25.53125-26.820313 25.53125-14.789062 0-26.820312-11.453124-26.820312-25.53125 0-14.074218 12.03125-25.527343 26.820312-25.527343 14.789063 0 26.820313 11.449219 26.820313 25.527343zm0 0" fill="#083863" style="fill: rgb(0, 0, 0);"></path><path d="m424 378.128906c-37.546875 0-68 29.546875-68 65.859375v10.261719c-.03125 2.078125.785156 4.078125 2.261719 5.539062 1.472656 1.460938 3.480469 2.261719 5.558593 2.210938h120.179688c2.09375.054688 4.125-.734375 5.628906-2.191406 1.507813-1.460938 2.359375-3.460938 2.371094-5.558594v-10.261719c-.007812-17.632812-7.261719-34.488281-20.054688-46.621093-12.871093-12.40625-30.070312-19.308594-47.945312-19.238282zm52 67.871094h-104v-2.011719c0-27.492187 23.277344-49.859375 52-49.859375 13.734375-.0625 26.953125 5.234375 36.84375 14.761719 9.652344 9.128906 15.132812 21.816406 15.15625 35.097656zm0 0" fill="#083863" style="fill: rgb(0, 0, 0);"></path><path d="m25.269531 334.539062c0 22.902344 19.210938 41.53125 42.820313 41.53125s42.820312-18.632812 42.820312-41.53125c0-22.898437-19.210937-41.527343-42.820312-41.527343s-42.820313 18.628906-42.820313 41.527343zm42.820313-25.527343c14.789062 0 26.820312 11.449219 26.820312 25.527343 0 14.078126-12.03125 25.53125-26.820312 25.53125-14.789063 0-26.820313-11.453124-26.820313-25.53125 0-14.074218 12.03125-25.527343 26.820313-25.527343zm0 0" fill="#083863" style="fill: rgb(0, 0, 0);"></path><path d="m68.089844 378.128906c-37.542969 0-68.089844 29.546875-68.089844 65.859375v10.261719c.0117188 2.097656.863281 4.097656 2.371094 5.558594 1.503906 1.457031 3.535156 2.246094 5.628906 2.191406h120.179688c2.078124.050781 4.085937-.75 5.558593-2.210938 1.476563-1.460937 2.292969-3.460937 2.261719-5.539062v-10.261719c.007812-17.625-7.226562-34.484375-20.011719-46.621093-12.851562-12.40625-30.035156-19.308594-47.898437-19.238282zm51.910156 67.871094h-104v-2.011719c0-27.492187 23.367188-49.859375 52.089844-49.859375 13.722656-.0625 26.925781 5.234375 36.800781 14.761719 9.636719 9.132813 15.101563 21.824219 15.109375 35.097656zm0 0" fill="#083863" style="fill: rgb(0, 0, 0);"></path><path d="m305.851562 401h-20.851562v-8.867188c2-1.820312 4.554688-3.785156 6.613281-5.898437 12.421875-12.636719 19.382813-29.644531 19.386719-47.363281v-50.871094h6.351562c4.4375-.046875 8.007813-3.660156 8-8.101562-.027343-26.40625-21.402343-47.824219-47.8125-47.898438h-40.988281c-5.761719.050781-11.371093 1.851562-16.089843 5.15625-25.460938 10.054688-42.261719 34.5625-42.460938 61.933594v39.78125c.183594 21.957031 10.992188 42.46875 29 55.035156v7.09375h-20.851562c-26.363282 0-48.148438 21.453125-48.148438 47.808594v35.191406c.160156 4.480469 3.855469 8.023438 8.339844 8h199.320312c4.484375.023438 8.179688-3.519531 8.339844-8v-35.191406c0-26.355469-21.785156-47.808594-48.148438-47.808594zm-60.5 18.410156-22.351562-14.730468v-2.28125c6.992188 2.582031 14.386719 3.902343 21.839844 3.902343 8.289062-.03125 16.492187-1.660156 24.160156-4.800781v3.066406zm-16.085937-168.726562c2.0625-1.683594 4.625-2.625 7.285156-2.683594h40.988281c14.777344 0 27.234376 11 30.792969 24h-71.78125c-.179687 0-.363281.09375-.535156.078125-.058594 0-.117187.039063-.175781.039063-6.28125-.363282-11.191406-5.558594-11.191406-11.851563-.003907-3.210937 1.269531-6.289063 3.539062-8.558594.335938-.363281.695312-.707031 1.078125-1.023437zm-20.367187 13.257812c1.074218 8.109375 5.652343 15.339844 12.523437 19.78125-7.378906 6.867188-16.796875 11.140625-26.824219 12.167969.808594-12.015625 5.878906-23.34375 14.300782-31.949219zm-14.898438 74.929688v-26.988282c11-.769531 29.734375-4.882812 45.234375-23.882812h55.765625v50.871094c-.066406 17.03125-8.4375 32.960937-22.429688 42.675781-8.164062 5.679687-17.867187 8.730469-27.8125 8.742187-9.207031-.011718-18.226562-2.585937-26.054687-7.429687-15.210937-9.476563-24.527344-26.066406-24.703125-43.988281zm-40 109.9375c0-17.535156 14.609375-31.808594 32.148438-31.808594h26.191406l24.660156 16.230469v42.769531h-83zm184 27.191406h-85v-42.65625l26.40625-16.34375h26.445312c17.539063 0 32.148438 14.273438 32.148438 31.808594zm0 0" fill="#083863" style="fill: rgb(0, 0, 0);"></path><path d="m237.839844 327.519531c0-4.417969-3.582032-8-8-8-4.417969 0-8 3.582031-8 8 0 1.078125-.875 1.949219-1.949219 1.949219-.515625 0-1.011719-.203125-1.375-.570312-.367187-.367188-.570313-.863282-.566406-1.378907 0-4.417969-3.582031-8-8-8s-8 3.582031-8 8c0 9.910157 8.035156 17.945313 17.945312 17.945313 9.910157 0 17.945313-8.035156 17.945313-17.945313zm0 0" fill="#083863" style="fill: rgb(0, 0, 0);"></path><path d="m269.621094 345.46875c9.90625-.011719 17.9375-8.039062 17.949218-17.949219 0-4.417969-3.582031-8-8-8-4.417968 0-8 3.582031-8 8 0 .789063-.472656 1.496094-1.199218 1.800781-.726563.300782-1.566406.136719-2.125-.417968-.367188-.363282-.570313-.863282-.566406-1.382813 0-4.417969-3.582032-8-8-8-4.417969 0-8 3.582031-8 8-.003907 4.761719 1.886718 9.328125 5.25 12.695313 3.363281 3.367187 7.929687 5.257812 12.691406 5.253906zm0 0" fill="#083863" style="fill: rgb(0, 0, 0);"></path></g></svg>