<!-- icon666.com - MILLIONS vector ICONS FREE --><svg id="Layer_1" viewBox="0 0 64 64" xmlns="http://www.w3.org/2000/svg" data-name="Layer 1"><rect fill="#adcdf7" height="38" rx="2" width="38" x="2" y="24"></rect><rect fill="#adcdf7" height="38" rx="2" width="38" x="24" y="2"></rect><path d="m38 24h-14v14a2 2 0 0 0 2 2h14v-14a2 2 0 0 0 -2-2z" fill="#d86163"></path><circle cx="51" cy="9" fill="#ffc173" r="3"></circle><path d="m45 25v-8.5a3.5 3.5 0 0 1 3.5-3.5h5a3.5 3.5 0 0 1 3.5 3.5v8.5z" fill="#2c77d9"></path><path d="m51 13-2 5.143 2 2.857 2-2.857z" fill="#f1f1f1"></path><circle cx="11" cy="47.25" fill="#ffc173" r="2.25"></circle><circle cx="15" cy="40.75" fill="#ffc173" r="2.25"></circle><path d="m7 58v-5a2.5 2.5 0 0 1 2.5-2.5h3a2.5 2.5 0 0 1 2.5 2.5v5z" fill="#2c77d9"></path><circle cx="19" cy="47.25" fill="#ffc173" r="2.25"></circle><path d="m15 58v-5a2.5 2.5 0 0 1 2.5-2.5h3a2.5 2.5 0 0 1 2.5 2.5v5z" fill="#2c77d9"></path><path d="m60 1h-34a3 3 0 0 0 -3 3v19h-19a3 3 0 0 0 -3 3v34a3 3 0 0 0 3 3h34a3 3 0 0 0 3-3v-19h19a3 3 0 0 0 3-3v-34a3 3 0 0 0 -3-3zm-21 59a1 1 0 0 1 -1 1h-34a1 1 0 0 1 -1-1v-34a1 1 0 0 1 1-1h19v13a3 3 0 0 0 3 3h13zm0-21h-13a1 1 0 0 1 -1-1v-13h13a1 1 0 0 1 1 1zm22-1a1 1 0 0 1 -1 1h-19v-13a3 3 0 0 0 -3-3h-13v-19a1 1 0 0 1 1-1h34a1 1 0 0 1 1 1z"></path><path d="m35.84 27.907-1.68-1.087-1.41 2.18h-5.75v2h4.456l-1.295 2h-3.161v2h1.867l-.707 1.093 1.68 1.087 1.41-2.18h5.75v-2h-4.456l1.295-2h3.161v-2h-1.867z"></path><path d="m53.605 12.011a4 4 0 1 0 -5.21 0 4.5 4.5 0 0 0 -4.395 4.489v8.5a1 1 0 0 0 1 1h12a1 1 0 0 0 1-1v-8.5a4.5 4.5 0 0 0 -4.395-4.489zm-2.605-5.011a2 2 0 1 1 -2 2 2 2 0 0 1 2-2zm.874 11.007-.874 1.249-.874-1.249.874-2.248zm4.126 5.993h-10v-7.5a2.5 2.5 0 0 1 2.5-2.5h1.039l-1.471 3.781a1 1 0 0 0 .113.936l2 2.857a1 1 0 0 0 1.638 0l2-2.857a1 1 0 0 0 .113-.936l-1.471-3.781h1.039a2.5 2.5 0 0 1 2.5 2.5z"></path><path d="m15 44a3.25 3.25 0 1 0 -3.25-3.25 3.254 3.254 0 0 0 3.25 3.25zm0-4.5a1.25 1.25 0 1 1 -1.25 1.25 1.252 1.252 0 0 1 1.25-1.25z"></path><path d="m21.25 49.586a3.25 3.25 0 1 0 -4.5 0 3.487 3.487 0 0 0 -1.75.972 3.487 3.487 0 0 0 -1.75-.972 3.25 3.25 0 1 0 -4.5 0 3.5 3.5 0 0 0 -2.75 3.414v5a1 1 0 0 0 1 1h16a1 1 0 0 0 1-1v-5a3.5 3.5 0 0 0 -2.75-3.414zm-10.25-3.586a1.25 1.25 0 1 1 -1.25 1.25 1.252 1.252 0 0 1 1.25-1.25zm3 11h-6v-4a1.5 1.5 0 0 1 1.5-1.5h3a1.5 1.5 0 0 1 1.5 1.5zm5-11a1.25 1.25 0 1 1 -1.25 1.25 1.252 1.252 0 0 1 1.25-1.25zm3 11h-6v-4a1.5 1.5 0 0 1 1.5-1.5h3a1.5 1.5 0 0 1 1.5 1.5z"></path></svg>