<!-- icon666.com - MILLIONS vector ICONS FREE --><svg viewBox="0 0 64 64" xmlns="http://www.w3.org/2000/svg"><g id="Fill_Outline" data-name="Fill Outline"><path d="m11 39h42v22h-42z" fill="#3aba80"></path><path d="m7 33h50v6h-50z" fill="#80e1b8"></path><path d="m31 15h6v4h-6z" fill="#f06e7a"></path><path d="m29 6h10a0 0 0 0 1 0 0v6a5 5 0 0 1 -5 5 5 5 0 0 1 -5-5v-6a0 0 0 0 1 0 0z" fill="#ffc569"></path><path d="m28 17h13a4 4 0 0 1 4 4v12a0 0 0 0 1 0 0h-17a0 0 0 0 1 0 0v-16a0 0 0 0 1 0 0z" fill="#68cbf2"></path><path d="m33 22v-5h-5v16h17v-3h-4a8 8 0 0 1 -8-8z" fill="#34b2e4"></path><path d="m35 20h-2l-1 8 2 2 2-2z" fill="#80e1b8"></path><path d="m20.828 17-5-5a1.994 1.994 0 0 0 -2.828 0 1.994 1.994 0 0 0 0 2.82l5.59 5.59a2 2 0 0 0 1.41.59h8v-4z" fill="#34b2e4"></path><path d="m17.41 13.59-2.82 2.82-1.59-1.59a1.994 1.994 0 0 1 0-2.82 1.994 1.994 0 0 1 2.82 0z" fill="#ffc569"></path><path d="m41 22a0 0 0 0 1 0 0v11a0 0 0 0 1 0 0h-2a0 0 0 0 1 0 0v-9a2 2 0 0 1 2-2z" fill="#34b2e4"></path><path d="m31 12a3 3 0 0 1 3-3h5v-3h-10v6a5 5 0 0 0 6 4.9 5 5 0 0 1 -4-4.9z" fill="#f06e7a"></path><path d="m33.351 24.2a1.459 1.459 0 0 1 1.039-1.245 1.977 1.977 0 0 0 .709-.375 2.176 2.176 0 0 0 .2-.2l-.299-2.38h-2l-1 8 2 2 1-1a5.778 5.778 0 0 1 -1.649-4.8z" fill="#3aba80"></path><path d="m32 17h4a0 0 0 0 1 0 0v2a2 2 0 0 1 -2 2 2 2 0 0 1 -2-2v-2a0 0 0 0 1 0 0z" fill="#80e1b8"></path><path d="m34 19a2 2 0 0 1 2-2h-4v2a1.988 1.988 0 0 0 3 1.723 1.994 1.994 0 0 1 -1-1.723z" fill="#3aba80"></path><path d="m25 3h10a4 4 0 0 1 4 4 0 0 0 0 1 0 0h-10a4 4 0 0 1 -4-4 0 0 0 0 1 0 0z" fill="#92e5eb"></path><path d="m30 5a3.982 3.982 0 0 1 -3.445-2h-1.555a4 4 0 0 0 4 4h10a3.955 3.955 0 0 0 -.555-2z" fill="#34b2e4"></path><rect fill="#ffc569" height="8" rx="2" transform="matrix(.707 .707 -.707 .707 23.192 -7.648)" width="4" x="18.828" y="20.172"></rect><path d="m23.657 22.172-2.829 2.828a2 2 0 0 1 -2.828 0 1.967 1.967 0 0 1 -.309-.414 2 2 0 0 0 3.137 2.414l2.829-2.828a2 2 0 0 0 .309-2.415 1.973 1.973 0 0 1 -.309.415z" fill="#f06e7a"></path><path d="m12 33h45a0 0 0 0 1 0 0v3a0 0 0 0 1 0 0h-42a3 3 0 0 1 -3-3 0 0 0 0 1 0 0z" fill="#bbf58b"></path><path d="m17 42h36a0 0 0 0 1 0 0v13a0 0 0 0 1 0 0h-26a10 10 0 0 1 -10-10v-3a0 0 0 0 1 0 0z" fill="#80e1b8"></path><g fill="#2f2f31"><path d="m22.351 45.063a1 1 0 0 0 -1.288.586l-2.063 5.503-2.063-5.5a1 1 0 1 0 -1.874.7l3 8a1 1 0 0 0 1.874 0l3-8a1 1 0 0 0 -.586-1.289z" fill="#2f2f31" style="fill: rgb(0, 0, 0);"></path><path d="m28 45a4 4 0 0 0 -4 4v2a4 4 0 0 0 8 0v-2a4 4 0 0 0 -4-4zm2 6a2 2 0 0 1 -4 0v-2a2 2 0 0 1 4 0z" fill="#2f2f31" style="fill: rgb(0, 0, 0);"></path><path d="m40 45h-6a1 1 0 0 0 0 2h2v7a1 1 0 0 0 2 0v-7h2a1 1 0 0 0 0-2z" fill="#2f2f31" style="fill: rgb(0, 0, 0);"></path><path d="m48 47a1 1 0 0 0 0-2h-4a1 1 0 0 0 -1 1v8a1 1 0 0 0 1 1h4a1 1 0 0 0 0-2h-3v-2h3a1 1 0 0 0 0-2h-3v-2z" fill="#2f2f31" style="fill: rgb(0, 0, 0);"></path><path d="m57 32h-11v-11a5.006 5.006 0 0 0 -5-5h-2.54a5.969 5.969 0 0 0 1.54-4v-1a1 1 0 0 0 -2 0v1a4 4 0 0 1 -8 0v-4h9a1 1 0 0 0 1-1 5.006 5.006 0 0 0 -5-5h-10a1 1 0 0 0 -1 1 5.009 5.009 0 0 0 4 4.9v4.1a5.969 5.969 0 0 0 1.54 4h-8.3l-4.711-4.711a3 3 0 0 0 -4.242 4.242l4.805 4.8a1 1 0 0 0 1.414-1.414l-2.506-2.503 1.414-1.414 2.707 2.707a1 1 0 0 0 .707.293h10.172v1a2.987 2.987 0 0 0 .856 2.092l-.848 6.784a1 1 0 0 0 .285.831l2 2a1 1 0 0 0 1.414 0l2-2a1 1 0 0 0 .285-.831l-.848-6.784a2.987 2.987 0 0 0 .856-2.092v-1h4a3 3 0 0 1 3 3v11h-2v-9a1 1 0 0 0 -2 0v9h-11v-9a1 1 0 0 0 -2 0v9h-11v-1.586l2.13-2.13a2.967 2.967 0 0 0 3.406-.577l2.828-2.828a3 3 0 0 0 0-4.243 3.07 3.07 0 0 0 -4.242 0l-1.414 1.414-1.414 1.413a3 3 0 0 0 -.577 3.406l-2.423 2.423a1 1 0 0 0 -.294.708v2h-7a1 1 0 0 0 -1 1v6a1 1 0 0 0 1 1h3v21a1 1 0 0 0 2 0v-21h25a1 1 0 0 0 0-2h-29v-4h48v4h-14a1 1 0 0 0 0 2h10v21a1 1 0 0 0 2 0v-21h3a1 1 0 0 0 1-1v-6a1 1 0 0 0 -1-1zm-42.414-17-.883-.883a1 1 0 0 1 1.414-1.417l.883.883zm11.585-11h8.829a3.006 3.006 0 0 1 2.829 2h-8.829a3.006 3.006 0 0 1 -2.829-2zm7.829 24.586-.947-.947.708-5.663c.08.006.157.024.239.024s.159-.018.239-.024l.708 5.663zm1-9.586a1 1 0 0 1 -2 0v-1h2zm-16.293 7.293a1 1 0 0 1 0-1.415l.707-.706 1.415 1.414-.707.707a1 1 0 0 1 -1.415 0zm3.536-4.536a1 1 0 0 1 .707 1.707l-.708.708-1.414-1.414.708-.708a.993.993 0 0 1 .707-.293z" fill="#2f2f31" style="fill: rgb(0, 0, 0);"></path><circle cx="31" cy="11" r="1" fill="#2f2f31" style="fill: rgb(0, 0, 0);"></circle><circle cx="35" cy="11" r="1" fill="#2f2f31" style="fill: rgb(0, 0, 0);"></circle></g></g></svg>