<!-- icon666.com - MILLIONS vector ICONS FREE --><svg id="Layer_3" viewBox="0 0 64 64" xmlns="http://www.w3.org/2000/svg" data-name="Layer 3"><path d="m39 16h14a2 2 0 0 0 2-2v-10a2 2 0 0 0 -2-2h-14a2 2 0 0 0 -2 2v3l-6 2 6 1v4a2 2 0 0 0 2 2z" fill="#c7e2fb"></path><path d="m39 2a2 2 0 0 0 -2 2v3l-6 2 6 1v3h10a3 3 0 0 0 3-3v-8z" fill="#ebf7fe"></path><path d="m16 23h8v14h-8z" fill="#b3bec4"></path><rect fill="#fddfb1" height="8" rx="3" width="6" x="29" y="35"></rect><path d="m29 38v2a2.962 2.962 0 0 0 .184 1h1.816a2 2 0 0 0 2-2v-3a1.977 1.977 0 0 0 -.214-.883 2.961 2.961 0 0 0 -3.786 2.883z" fill="#fde5c1"></path><path d="m29 45-5-5-3 3 7 7v5h8v-5l7-7-3-3-5 5z" fill="#d4483f"></path><path d="m30 52a3 3 0 0 0 3-3v-4h-4l-5-5-3 3 7 7v2z" fill="#dd6d65"></path><rect fill="#fddfb1" height="8" rx="3" width="6" x="17" y="5"></rect><path d="m17 8v2a2.962 2.962 0 0 0 .184 1h1.816a2 2 0 0 0 2-2v-3a1.977 1.977 0 0 0 -.214-.883 2.961 2.961 0 0 0 -3.786 2.883z" fill="#fde5c1"></path><path d="m17 15-5-5-3 3 7 7v3h8v-3l7-7-3-3-5 5z" fill="#4596ec"></path><path d="m18 22a3 3 0 0 0 3-3v-4h-4l-5-5-3 3 7 7v2z" fill="#6aabf0"></path><rect fill="#fddfb1" height="8" rx="3" width="6" x="48" y="42"></rect><path d="m48 45v2a2.962 2.962 0 0 0 .184 1h1.816a2 2 0 0 0 2-2v-3a1.977 1.977 0 0 0 -.214-.883 2.961 2.961 0 0 0 -3.786 2.883z" fill="#fde5c1"></path><path d="m48 52-5-5-3 3 7 7v5h8v-5l7-7-3-3-5 5z" fill="#d4483f"></path><path d="m49 59a3 3 0 0 0 3-3v-4h-4l-5-5-3 3 7 7v2z" fill="#dd6d65"></path><rect fill="#fddfb1" height="8" rx="3" width="6" x="10" y="42"></rect><path d="m10 45v2a2.962 2.962 0 0 0 .184 1h1.816a2 2 0 0 0 2-2v-3a1.977 1.977 0 0 0 -.214-.883 2.961 2.961 0 0 0 -3.786 2.883z" fill="#fde5c1"></path><path d="m10 52-5-5-3 3 7 7v5h8v-5l7-7-3-3-5 5z" fill="#d4483f"></path><path d="m11 59a3 3 0 0 0 3-3v-4h-4l-5-5-3 3 7 7v2z" fill="#dd6d65"></path><path d="m52 33h10v6h-10z" fill="#b3bec4"></path><path d="m52 33v4h6a2 2 0 0 0 2-2v-2z" fill="#c2cbd0"></path><path d="m2 33h10v6h-10z" fill="#b3bec4"></path><path d="m2 33v4h6a2 2 0 0 0 2-2v-2z" fill="#c2cbd0"></path><path d="m13 41a4 4 0 0 0 -4 4v2a4 4 0 0 0 8 0v-2a4 4 0 0 0 -4-4zm2 6a2 2 0 0 1 -4 0v-2a2 2 0 0 1 4 0z"></path><path d="m28 56h8a1 1 0 0 0 1-1v-4.586l6.707-6.707a1 1 0 0 0 0-1.414l-3-3a1 1 0 0 0 -1.414 0l-5 5 1.414 1.414 4.293-4.293 1.586 1.586-6.293 6.293a1 1 0 0 0 -.293.707v4h-6v-4a1 1 0 0 0 -.293-.707l-6.293-6.293 1.586-1.586 4.293 4.293 1.414-1.414-5-5a1 1 0 0 0 -1.414 0l-3 3a1 1 0 0 0 0 1.414l6.707 6.707v4.586a1 1 0 0 0 1 1z"></path><path d="m36 40v-2a4 4 0 0 0 -8 0v2a4 4 0 0 0 8 0zm-6 0v-2a2 2 0 0 1 4 0v2a2 2 0 0 1 -4 0z"></path><path d="m47 47a4 4 0 0 0 8 0v-2a4 4 0 0 0 -8 0zm2-2a2 2 0 0 1 4 0v2a2 2 0 0 1 -4 0z"></path><path d="m62 40a1 1 0 0 0 1-1v-6a1 1 0 0 0 -1-1h-10a1 1 0 0 0 -1 1v6a1 1 0 0 0 1 1h4v8.586l-2.707 2.707 1.414 1.414 4.293-4.293 1.586 1.586-6.293 6.293a1 1 0 0 0 -.293.707v4h-6v-4a1 1 0 0 0 -.293-.707l-6.293-6.293 1.586-1.586 4.293 4.293 1.414-1.414-5-5a1 1 0 0 0 -1.414 0l-3 3a1 1 0 0 0 0 1.414l6.707 6.707v3.586h-28v-3.586l6.707-6.707a1 1 0 0 0 0-1.414l-3-3a1 1 0 0 0 -1.414 0l-5 5 1.414 1.414 4.293-4.293 1.586 1.586-6.293 6.293a1 1 0 0 0 -.293.707v4h-6v-4a1 1 0 0 0 -.293-.707l-6.293-6.293 1.586-1.586 4.293 4.293 1.414-1.414-2.707-2.707v-8.586h4a1 1 0 0 0 1-1v-6a1 1 0 0 0 -1-1h-10a1 1 0 0 0 -1 1v6a1 1 0 0 0 1 1h4v6.586l-.293-.293a1 1 0 0 0 -1.414 0l-3 3a1 1 0 0 0 0 1.414l6.707 6.707v3.586h-7v2h62v-2h-7v-3.586l6.707-6.707a1 1 0 0 0 0-1.414l-3-3a1 1 0 0 0 -1.414 0l-.293.293v-6.586zm-59-6h8v4h-8zm50 0h8v4h-8z"></path><path d="m15 20.414v16.586a1 1 0 0 0 1 1h8a1 1 0 0 0 1-1v-16.586l6.707-6.707a1 1 0 0 0 0-1.414l-3-3a1 1 0 0 0 -1.414 0l-5 5 1.414 1.414 4.293-4.293 1.586 1.586-6.293 6.293a1 1 0 0 0 -.293.707v2h-6v-2a1 1 0 0 0 -.293-.707l-6.293-6.293 1.586-1.586 4.293 4.293 1.414-1.414-5-5a1 1 0 0 0 -1.414 0l-3 3a1 1 0 0 0 0 1.414zm8 3.586v12h-2v-10h-2v10h-2v-12z"></path><path d="m20 14a4 4 0 0 0 4-4v-2a4 4 0 0 0 -8 0v2a4 4 0 0 0 4 4zm-2-6a2 2 0 0 1 4 0v2a2 2 0 0 1 -4 0z"></path><path d="m30.835 9.986 5.165.861v3.153a3 3 0 0 0 3 3h14a3 3 0 0 0 3-3v-10a3 3 0 0 0 -3-3h-14a3 3 0 0 0 -3 3v2.279l-5.316 1.773a1 1 0 0 0 .151 1.934zm6.481-2.038a1 1 0 0 0 .684-.948v-3a1 1 0 0 1 1-1h14a1 1 0 0 1 1 1v10a1 1 0 0 1 -1 1h-14a1 1 0 0 1 -1-1v-4a1 1 0 0 0 -.835-.986l-2.029-.338z"></path><path d="m40 6h12v2h-12z"></path><path d="m40 10h12v2h-12z"></path></svg>